inDegrees=no
num_controls=7
num_derivatives=13
num_iterations=87
num_multipliers=7
num_parameters=0
num_slacks=7
num_states=26
objective=0.454904
objective_accelerations=0.043734
objective_balance=0.000778
objective_effort=0.035819
objective_height=0.368470
objective_ligament=0.006104
solver_duration=965.663590
status=Solve_Succeeded
success=true
DataType=double
version=3
OpenSimVersion=4.5
endheader
time	/jointset/ground_pelvis/pelvis_tilt/value	/jointset/ground_pelvis/pelvis_tx/value	/jointset/ground_pelvis/pelvis_ty/value	/jointset/hip_r/hip_flexion_r/value	/jointset/hip_r/hip_adduction_r/value	/jointset/hip_r/hip_rotation_r/value	/jointset/back/lumbar_extension/value	/jointset/patellofemoral_r/patellar_flexion_r/value	/jointset/knee_r/knee_flexion_r/value	/jointset/knee_r/knee_adduction_r/value	/jointset/knee_r/knee_rotation_r/value	/jointset/ankle_r/ankle_angle_r/value	/jointset/subtalar_r/subtalar_angle_r/value	/jointset/ground_pelvis/pelvis_tilt/speed	/jointset/ground_pelvis/pelvis_tx/speed	/jointset/ground_pelvis/pelvis_ty/speed	/jointset/hip_r/hip_flexion_r/speed	/jointset/hip_r/hip_adduction_r/speed	/jointset/hip_r/hip_rotation_r/speed	/jointset/back/lumbar_extension/speed	/jointset/patellofemoral_r/patellar_flexion_r/speed	/jointset/knee_r/knee_flexion_r/speed	/jointset/knee_r/knee_adduction_r/speed	/jointset/knee_r/knee_rotation_r/speed	/jointset/ankle_r/ankle_angle_r/speed	/jointset/subtalar_r/subtalar_angle_r/speed	/forceset/tau_hip_flexion_r	/forceset/tau_hip_adduction_r	/forceset/tau_hip_rotation_r	/forceset/tau_knee_flexion_r	/forceset/tau_ankle_angle_r	/forceset/tau_subtalar_angle_r	/forceset/tau_lumbar_extension	lambda_cid13_p0	lambda_cid14_p0	lambda_cid14_p1	lambda_cid14_p2	lambda_cid14_p3	lambda_cid14_p4	lambda_cid14_p5	/jointset/ground_pelvis/pelvis_tilt/accel	/jointset/ground_pelvis/pelvis_tx/accel	/jointset/ground_pelvis/pelvis_ty/accel	/jointset/hip_r/hip_flexion_r/accel	/jointset/hip_r/hip_adduction_r/accel	/jointset/hip_r/hip_rotation_r/accel	/jointset/back/lumbar_extension/accel	/jointset/patellofemoral_r/patellar_flexion_r/accel	/jointset/knee_r/knee_flexion_r/accel	/jointset/knee_r/knee_adduction_r/accel	/jointset/knee_r/knee_rotation_r/accel	/jointset/ankle_r/ankle_angle_r/accel	/jointset/subtalar_r/subtalar_angle_r/accel	gamma_cid13_p0	gamma_cid14_p0	gamma_cid14_p1	gamma_cid14_p2	gamma_cid14_p3	gamma_cid14_p4	gamma_cid14_p5
1	-0.2028041979869362	0.0004579537351723993	0.6634528341026342	1.322377250376308	-0.2549031000323422	0.09153756421113007	-0.7853978343095149	1.457807698598244	1.457807698598246	0.04896708237679535	0.1745285748480803	0.4362761607650368	0.1400627609993269	0.06894111932917775	0.005017713610544948	0.014259189557624	-0.09782285842704873	-0.001458232844287291	-0.007726966515472172	1.411083572466171e-05	-0.01698669711624662	-0.01698669711624749	-0.001117042897288769	-7.108114668331981e-05	0.01175258755765537	0.002790020900347641	-0.3121651704295481	0.02489365180265532	0.0504272499285588	-0.4563974584632321	-0.03160611372881116	-0.01693389773704142	0.3441641303805775	-0.04076706062238156	-62.32902281974263	-21.27458399700419	7.248209306935686	9.065360582360151	-758.6989486536395	66.35032605678785	1.237243894315636	0.1301628687354628	1.633266967136097	-4.968932081175102	-0.0576137446596784	-1.52321284070519	-0.007872593987270719	-4.747697758768648	-4.747697758768653	0.03364911407497145	-0.005677476146814691	-1.242413463247504	-0.6352331821056099	-8.799431981696921e-10	-1.854600180491148e-09	-8.747825935171969e-09	-2.881850086879075e-09	3.659080157603033e-09	-3.358172615206738e-09	-2.023152665625767e-08
1.01	-0.2020545958530769	0.0005148924293956614	0.6636767860423463	1.321152414400407	-0.2549205165149869	0.09138414774954569	-0.7853940412627005	1.45740101124667	1.457401011246677	0.0489573504202524	0.1745274834723088	0.4363320261450708	0.1400591893587443	0.08087549465094798	0.006398252701199535	0.03051383062897898	-0.147048880474269	-0.002031016235758455	-0.02293863177330199	0.001075888171561247	-0.06431729079910618	-0.06431729079910564	-0.0008140068496578925	-0.0001362868212833659	-0.0005364235845357019	-0.003496032963649224	-0.3135250034245455	0.02497088450037062	0.05040025717879389	-0.4559503720119661	-0.03226512737997706	-0.01683404570833699	0.3458449645932621	-0.04075581959517768	-62.56848614469389	-21.25787225901831	7.228097936051137	8.787080211245286	-759.5211005618437	66.34627353878309	1.155962419781847	0.1462348411721754	1.618956547430651	-4.885119010008396	-0.0580038362111274	-1.517491297569375	0.2129113455829587	-4.720717345926039	-4.720717345925806	0.03093336440121513	-0.005309068697000413	-1.215681946007754	-0.6240464709729812	-2.321749668212718e-09	-3.588551909251657e-09	-8.200182152465076e-09	-9.748661191265244e-09	6.430458501324331e-09	-4.817007997679776e-09	-2.799489603071654e-08
1.02	-0.2011887643522647	0.0005864835969138259	0.6640627631668328	1.319438181855351	-0.2549438394715072	0.09107914504953153	-0.7853696887529749	1.456522022523691	1.456522022523691	0.04895110932705416	0.1745260666486785	0.4362662940124671	0.139993006183037	0.09218699271968557	0.007948208269525438	0.04666422651214731	-0.1957021722619953	-0.002639527620044982	-0.03804421420103076	0.004126003435944583	-0.1114469713972195	-0.1114469713972176	-0.0004188702302676824	-0.0001361707190972644	-0.01256691497884092	-0.00973228612469605	-0.31488483641944	0.02504811719809884	0.05037326442900975	-0.4555032855606959	-0.03292414103115381	-0.01673419367961241	0.3475257988060412	-0.04075057853353949	-62.81581331398419	-21.2396948458855	7.204506279115121	8.518402413605822	-760.4858213865366	66.34260349415293	1.112668443709009	0.1640461642697925	1.612417929498781	-4.854386029276326	-0.06475934322277754	-1.501996274685014	0.3897949917221437	-4.707515141819427	-4.707515141819447	0.05206922842684727	0.007386879210460325	-1.190709513670233	-0.6252730415156065	-1.999930976647302e-09	-5.92960823601468e-09	-7.131164609618726e-09	-1.392450136052046e-08	1.094673072451479e-08	-1.327811060855652e-08	-2.765447327639723e-08
1.03	-0.2002107607735073	0.0006743444609818259	0.6646100692439484	1.317237686906994	-0.2549733700566033	0.09062366175904184	-0.7853083629072263	1.455172202409284	1.455172202409285	0.04894940374505857	0.1745248312351774	0.4360814146064358	0.1398647734614177	0.1035289893510507	0.009644680053767792	0.06281449786865403	-0.2445633217844636	-0.00326732617956117	-0.05303316496590206	0.008122415542721124	-0.1585379937281244	-0.1585379937281267	0.0001033792808143225	-0.0001132878900162782	-0.02437914786626471	-0.01590021581444473	-0.3154251708999562	0.02514455266729568	0.05034154263851256	-0.4550701561828993	-0.0334475071359396	-0.01665140638706042	0.3482635508190341	-0.04075994365747414	-63.00019704156879	-21.21787476600479	7.180295970107712	8.460379071981386	-760.9984680496698	66.33354273899768	1.162255514653927	0.1755581358383325	1.618953668551684	-4.926955386291734	-0.06190201255351661	-1.494455880828784	0.4020517943918209	-4.713036785372418	-4.713036785373063	0.05614877116452771	-0.0006220282743625491	-1.172008236248055	-0.6104495225972815	-1.660116109963421e-09	-8.276859507655284e-09	-6.056826926362787e-09	-1.80728826426825e-08	1.548080798729167e-08	-2.181066492584559e-08	-2.723135876566175e-08
